<svg width="70" height="70" viewBox="0 0 70 70" fill="none" xmlns="http://www.w3.org/2000/svg">
<circle cx="35" cy="35" r="33.5" stroke="#FFFCFC" stroke-width="3"/>
<g clip-path="url(#clip0_355_297)">
<path d="M54.4445 18.3334H15.5556C14.8189 18.3334 14.1124 18.626 13.5914 19.147C13.0705 19.6679 12.7778 20.3744 12.7778 21.1112V48.8889C12.7778 49.6256 13.0705 50.3322 13.5914 50.8531C14.1124 51.374 14.8189 51.6667 15.5556 51.6667H54.4445C55.1812 51.6667 55.8877 51.374 56.4087 50.8531C56.9296 50.3322 57.2223 49.6256 57.2223 48.8889V21.1112C57.2223 20.3744 56.9296 19.6679 56.4087 19.147C55.8877 18.626 55.1812 18.3334 54.4445 18.3334ZM52.3056 48.8889H17.8612L27.5834 38.8334L25.5834 36.9028L15.5556 47.2778V23.2223L32.8195 40.4028C33.3399 40.9202 34.044 41.2106 34.7778 41.2106C35.5117 41.2106 36.2157 40.9202 36.7362 40.4028L54.4445 22.7917V47.0973L44.2223 36.875L42.2639 38.8334L52.3056 48.8889ZM17.3751 21.1112H52.1945L34.7778 38.4306L17.3751 21.1112Z" fill="#FFFCFC"/>
</g>
<defs>
<clipPath id="clip0_355_297">
<rect width="50" height="50" fill="white" transform="translate(10 10)"/>
</clipPath>
</defs>
</svg>
