<svg width="70" height="70" viewBox="0 0 70 70" fill="none" xmlns="http://www.w3.org/2000/svg">
<g clip-path="url(#clip0_355_284)">
<path d="M24.6333 14.8125C26.1978 15.3425 27.6861 16.0751 29.0604 16.9917C31.0012 16.4957 32.9968 16.2465 34.9999 16.25C37.0687 16.25 39.0645 16.5084 40.9354 16.9896C42.309 16.0739 43.7967 15.342 45.3604 14.8125C46.8124 14.3188 48.8812 13.5188 50.1104 14.8792C50.9437 15.8042 51.152 17.3542 51.2999 18.5375C51.4666 19.8584 51.5062 21.5792 51.0687 23.2875C52.7416 25.4479 53.7499 28.025 53.7499 30.8334C53.7499 35.0875 51.4458 38.7813 48.0354 41.3396C46.3941 42.5553 44.5737 43.5084 42.6395 44.1646C43.0854 45.1854 43.3333 46.3146 43.3333 47.5V53.75C43.3333 54.3026 43.1138 54.8325 42.7231 55.2232C42.3324 55.6139 41.8025 55.8334 41.2499 55.8334H28.7499C28.1974 55.8334 27.6675 55.6139 27.2768 55.2232C26.8861 54.8325 26.6666 54.3026 26.6666 53.75V51.6854C24.677 51.9292 23.0083 51.7125 21.5895 51.1104C20.1062 50.4813 19.0729 49.5063 18.2958 48.5729C17.5583 47.6896 16.7541 45.6979 15.5916 45.3104C15.332 45.224 15.0919 45.0872 14.8851 44.908C14.6783 44.7288 14.5089 44.5106 14.3864 44.2659C14.1391 43.7716 14.0983 43.1994 14.2729 42.675C14.4475 42.1507 14.8232 41.7172 15.3175 41.4698C15.8117 41.2225 16.3839 41.1817 16.9083 41.3563C18.2958 41.8188 19.1999 42.8188 19.8187 43.6229C20.8187 44.9146 21.6312 46.6021 23.2145 47.275C23.8666 47.5521 24.8229 47.7334 26.3187 47.5292L26.6666 47.4584C26.6706 46.3246 26.9067 45.2037 27.3604 44.1646C25.4262 43.5084 23.6058 42.5553 21.9645 41.3396C18.5541 38.7813 16.2499 35.0896 16.2499 30.8334C16.2499 28.0292 17.2562 25.4542 18.9249 23.2959C18.4874 21.5875 18.5249 19.8625 18.6916 18.5396L18.702 18.4604C18.8541 17.2479 19.0312 15.8209 19.8812 14.8792C21.1104 13.5188 23.1812 14.3209 24.6312 14.8146L24.6333 14.8125Z" fill="#FFFCFC"/>
</g>
<circle cx="35" cy="35" r="33.5" stroke="#FFFCFC" stroke-width="3"/>
<defs>
<clipPath id="clip0_355_284">
<rect width="50" height="50" fill="white" transform="translate(10 10)"/>
</clipPath>
</defs>
</svg>
