<svg width="70" height="70" viewBox="0 0 70 70" fill="none" xmlns="http://www.w3.org/2000/svg">
<path d="M41.75 35C41.75 31.25 38.75 28.25 35 28.25C31.25 28.25 28.25 31.25 28.25 35C28.25 38.75 31.25 41.75 35 41.75C38.75 41.75 41.75 38.75 41.75 35ZM45.25 35C45.25 40.75 40.75 45.25 35 45.25C29.25 45.25 24.75 40.75 24.75 35C24.75 29.25 29.25 24.75 35 24.75C40.75 24.75 45.25 29.25 45.25 35ZM48 24.25C48 25.75 47 26.75 45.5 26.75C44 26.75 43 25.75 43 24.25C43 22.75 44 21.75 45.5 21.75C47 21.75 48 23 48 24.25ZM35 18.5C32 18.5 25.75 18.25 23.25 19.25C21.5 20 20 21.5 19.5 23.25C18.5 25.75 18.75 32 18.75 35C18.75 38 18.5 44.25 19.5 46.75C20 48.5 21.5 50 23.25 50.5C25.75 51.5 32.25 51.25 35 51.25C37.75 51.25 44.25 51.5 46.75 50.5C48.5 49.75 49.75 48.5 50.5 46.75C51.5 44 51.25 37.75 51.25 35C51.25 32.25 51.5 25.75 50.5 23.25C50 21.5 48.5 20 46.75 19.5C44.25 18.25 38 18.5 35 18.5ZM55 35V43.25C55 46.25 54 49.25 51.75 51.75C49.5 54 46.5 55 43.25 55H26.75C23.75 55 20.75 54 18.25 51.75C16.25 49.5 15 46.5 15 43.25V26.75C15 23.5 16.25 20.5 18.25 18.25C20.75 16.25 23.75 15 26.75 15H43.25C46.25 15 49.25 16 51.75 18.25C53.75 20.5 55 23.5 55 26.75V35Z" fill="#FFFCFC"/>
<circle cx="35" cy="35" r="33.5" stroke="#FFFCFC" stroke-width="3"/>
</svg>
