<svg width="70" height="70" viewBox="0 0 70 70" fill="none" xmlns="http://www.w3.org/2000/svg">
<circle cx="35" cy="35" r="33.5" stroke="#FFFCFC" stroke-width="3"/>
<path d="M24.4583 20.4167C24.4578 21.5217 24.0183 22.5813 23.2365 23.3623C22.4547 24.1434 21.3947 24.5818 20.2896 24.5813C19.1845 24.5807 18.1249 24.1412 17.3439 23.3594C16.5629 22.5776 16.1244 21.5176 16.125 20.4125C16.1256 19.3074 16.5651 18.2479 17.3469 17.4668C18.1287 16.6858 19.1887 16.2474 20.2938 16.2479C21.3988 16.2485 22.4584 16.688 23.2394 17.4698C24.0204 18.2516 24.4589 19.3116 24.4583 20.4167ZM24.5833 27.6667H16.25V53.75H24.5833V27.6667ZM37.75 27.6667H29.4583V53.75H37.6667V40.0625C37.6667 32.4375 47.6042 31.7292 47.6042 40.0625V53.75H55.8333V37.2292C55.8333 24.375 41.125 24.8542 37.6667 31.1667L37.75 27.6667Z" fill="#FFFCFC"/>
</svg>
