<svg width="32px" height="32px" viewBox="0 0 40.96 40.96" class="icon" version="1.1" xmlns="http://www.w3.org/2000/svg"><path d="M4.782 3.583h-0.029v7.295h31.387V9.098c0.001 -0.029 0.009 -0.057 0.009 -0.087V3.871c0 -0.03 -0.007 -0.057 -0.009 -0.087v-0.201h-0.02c-0.14 -0.982 -0.97 -1.74 -1.983 -1.74h-27.373c-1.013 0 -1.843 0.758 -1.983 1.74" fill="#C4BCB1"/><path d="M6.888 4.513h27.251v8.342H6.888z" fill="#FFFFFF"/><path d="M4.687 10.074h31.514V39.117h-31.514z" fill="#EEDBC3"/><path d="M4.687 10.074h16.313V39.117H4.687z" fill="#DCC9A5"/><path d="M4.782 37.569h-0.029v1.548h31.511l0.009 -1.26c0 -0.03 -0.007 -0.057 -0.009 -0.087v-0.201h-0.02c-0.14 -0.982 -0.973 -1.74 -1.99 -1.74H6.773c-1.017 0 -1.85 0.757 -1.99 1.74" fill="#C4BCB1"/><path d="M20.273 25.179a0.22 0.22 0 0 1 -0.44 0V16.72a0.22 0.22 0 0 1 0.44 0z" fill="#F38181"/><path d="M19.175 17.736a1.915 1.915 0 1 0 3.831 0 1.915 1.915 0 1 0 -3.831 0" fill="#5B5144"/><path d="M20.101 17.736a0.989 0.989 0 1 0 1.978 0 0.989 0.989 0 1 0 -1.978 0" fill="#FCE38A"/><path d="M25.076 7.448a0.525 0.525 0 0 1 -0.525 0.525H9.72a0.525 0.525 0 0 1 0 -1.051h14.83a0.525 0.525 0 0 1 0.525 0.525" fill="#C4BCB1"/></svg>